<?xml version="1.0" encoding="utf-8"?>
<!-- Generator: Adobe Illustrator 25.0.1, SVG Export Plug-In . SVG Version: 6.00 Build 0)  -->
<svg version="1.1" id="图层_1" xmlns="http://www.w3.org/2000/svg" xmlns:xlink="http://www.w3.org/1999/xlink" x="0px" y="0px"
	 viewBox="0 0 2466 804" style="enable-background:new 0 0 2466 804;" xml:space="preserve">
<style type="text/css">
	.st0{fill:#7A6CA9;}
	.st1{fill:none;}
</style>
<g>
	<g>
		<path class="st0" d="M1619.1,594.3c0.4-13.9,0.8-27.6,1.2-41.2c0.4-13.5,0.8-26.7,1.2-39.5c0.4-12.8,0.8-24.9,1.1-36.4
			c0.3-11.4,0.6-22.1,1-31.8c0.3-9.8,0.6-18.3,0.8-25.7c0.2-7.3,0.3-13.4,0.5-18.1c0.1-4.7,0.2-7.8,0.2-9.1c0-5.1-0.2-9.7-0.5-13.7
			c-0.3-4-1.2-7.4-2.7-10.1c-1.5-2.7-3.7-4.8-6.7-6.2c-3-1.4-7.2-2.1-12.6-2.1c-5.4,0-12.2,0.7-20.2,2.2c-8.1,1.4-17.9,3.7-29.5,6.6
			l1.2,9.9c8.2-1.2,15-1.8,20.2-1.8c3.9,0,7.1,0.4,9.7,1.1c2.5,0.8,4.5,2,5.9,3.7c1.4,1.7,2.4,3.8,3,6.5c0.5,2.6,0.8,5.8,0.8,9.6
			c0,19.2-0.2,38.3-0.4,57.3c-0.3,18.9-0.7,38.1-1.2,57.6c-0.5,19.6-1.2,39.7-1.9,60.4c-0.2,5.4-0.4,10.9-0.6,16.5
			c-14.1,4.7-53.4,17.3-57.6,18.3c-4.9,1.1-9.7,1.7-14.5,1.7c-7.3,0-14-1.1-20.1-3.5c-6.2-2.4-12-6.5-17.5-12.6
			c-5.6-6-10.9-14.2-16-24.7c-5.2-10.5-10.3-23.8-15.5-40c-5.2-16.1-10.5-35.5-16.1-58.1c-5.6-22.5-11.5-49-17.8-79.3
			c-6.3-30.3-13.1-64.9-20.4-103.6c-7.3-38.8-15.4-82.4-24.2-131c-4.5-1.9-8.7-3.3-12.6-3.9c-3.9-0.7-7.9-1.1-11.9-1.1
			c-2.8,0-5.7,0.2-8.6,0.6c-2.9,0.5-5.7,1.1-8.4,2.2c-2.6,1-5.1,2.3-7.4,4.1c-2.2,1.8-4,3.9-5.4,6.5
			c-15.2,28.8-32.9,64.6-52.8,107.5c-20,42.8-42.8,92.3-68.3,148.5c-9,0.1-13.4,2.9-13.4,8.5c0,3.1,1.4,7,4.4,11.6
			c-14,30.3-28.5,62-43.5,95.1c-15,33.1-30.9,67.9-47.7,104.2l3,2.1c2.9,0.2,6.1,0.2,9.7,0.3c3.5,0.1,6.5,0.1,8.9,0.1
			c4.2,0,8.2-0.1,11.9-0.3c3.7-0.2,7.3-1,10.4-2.2c3.2-1.4,6.2-3.5,9-6.4c2.8-2.9,5.3-7.1,7.5-12.4c1.8-4.6,3.8-9.7,5.9-15.4
			c2.1-5.7,4.5-12.5,7.4-20.3c2.8-7.8,6-17,9.7-27.5c3.7-10.6,8.1-22.9,13.1-37.2c3.2-9.2,7-19.8,11.4-31.9
			c4.4-12,9.3-25.2,14.8-39.6c27-1.5,53.1-2.7,78.3-3.7c25.2-0.9,50.8-1.5,76.6-1.8c5.9,27.1,11.4,50.9,16.8,71.4
			c5.3,20.5,10.5,38.1,15.5,52.9c5,14.8,10,27.1,15,36.9c4.9,9.7,10.1,17.6,15.3,23.3c5.3,5.8,10.7,9.9,16.3,12.3
			c5.7,2.3,11.7,3.5,18.1,3.5c11.3,0,24.3-2.1,39-6.2c12.3-3.5,57.2-18.9,80.9-28.5c-0.4,9.3-0.8,18.8-1.2,28.6l2.2,0.2l28.4-3.6
			C1618.2,622,1618.6,608.3,1619.1,594.3 M1297.5,419.9c-22.5,0.3-45.8,0.8-69.8,1.4c12.3-31.6,26.3-66.2,42.1-103.7
			c15.8-37.6,33.7-77.2,53.9-118.9h1.3c3.5,21,7,41.7,10.7,62.1c3.6,20.4,7.2,40,10.7,58.8c3.5,18.8,7,36.7,10.3,53.5
			c3.3,16.8,6.5,32.2,9.4,46C1342.8,419.3,1320,419.5,1297.5,419.9"/>
		<path class="st0" d="M1680.7,583.7c7.3,10.4,13.8,19.1,19.6,25.9c5.7,7,10.9,12.4,15.3,16.4c2.7,2.5,5.2,4.7,7.5,6.5
			c2.4,1.9,4.8,3.4,7.2,4.7c2.3,1.2,4.7,2.1,7.2,2.8c2.4,0.6,5,1,7.7,1c2.8,0,5.8-0.3,9.1-0.9c3.3-0.6,6.9-1.6,10.8-2.8
			c4-1.3,8.3-2.7,13.1-4.6c4.7-1.8,10-3.9,15.7-6.3l-3.4-9.8c-4.3,1.4-8.3,2.5-11.8,3.3c-3.6,0.8-6.9,1.2-10.1,1.2
			c-2.7,0-5.3-0.3-7.9-1c-2.6-0.6-5.2-1.7-7.9-3.2c-2.7-1.4-5.6-3.4-8.4-5.7c-3-2.3-6.1-5.2-9.4-8.5c-4.6-4.6-9.7-10.2-15.1-16.7
			c-5.4-6.5-11.5-14.4-18.2-23.7c-6.7-9.4-14.1-20.4-22.3-33.2c-8.1-12.7-17.2-27.7-27.3-45c9.1-12.8,18-24.9,26.7-36.3
			c8.6-11.4,17-21.4,25.1-30c8.1-8.6,15.8-15.5,23.2-20.5c7.3-5.1,14.3-7.7,20.7-7.7c3.2,0,6.4,0.6,9.8,1.9c3.3,1.2,6.5,3.5,9.6,6.9
			h1c3.4-2.6,6.1-5.9,7.9-9.7c1.8-3.8,2.7-7.7,2.7-11.5c0-2.5-0.4-4.8-1.3-7c-0.8-2.2-2.2-4.2-3.9-5.9c-1.8-1.7-4.1-2.9-6.8-4
			c-2.7-1-5.9-1.5-9.6-1.5c-8.6,0-17.3,3-26,9c-8.8,6-18.2,14.5-27.9,25.3c-9.8,10.9-20.2,24-31.3,39.3
			c-11.1,15.3-23.2,32.2-36.2,50.7l-8.9,12.6l-0.1,1.5c10.7,18.7,20.5,35.2,29.5,49.4C1665.2,560.9,1673.3,573.2,1680.7,583.7"/>
		<path class="st0" d="M1945.9,583.7c7.3,10.4,13.8,19.1,19.6,25.9c5.8,7,10.9,12.4,15.3,16.4c2.6,2.5,5.2,4.7,7.5,6.5
			c2.4,1.9,4.8,3.4,7.1,4.7c2.4,1.2,4.8,2.1,7.2,2.8c2.4,0.6,5,1,7.7,1c2.8,0,5.8-0.3,9.1-0.9c3.3-0.6,6.9-1.6,10.9-2.8
			c3.9-1.3,8.3-2.7,13-4.6c4.8-1.8,86.8-42.7,92.5-45.1l-3.3-9.8c-4.3,1.4-85.1,41.3-88.6,42c-3.6,0.8-6.9,1.2-10.1,1.2
			c-2.7,0-5.4-0.3-7.9-1c-2.6-0.6-5.2-1.7-7.9-3.2c-2.7-1.4-5.5-3.4-8.5-5.7c-2.9-2.3-6-5.2-9.4-8.5c-4.6-4.6-9.7-10.2-15.1-16.7
			c-5.4-6.5-11.5-14.4-18.2-23.7c-6.7-9.4-14.1-20.4-22.3-33.2c-8.2-12.7-17.3-27.7-27.3-45c9.1-12.8,18-24.9,26.6-36.3
			c8.7-11.4,17.1-21.4,25.2-30c8.1-8.6,15.9-15.5,23.2-20.5c7.3-5.1,14.3-7.7,20.7-7.7c3.2,0,6.4,0.6,9.7,1.9
			c3.3,1.2,6.5,3.5,9.7,6.9h1c3.4-2.6,6.1-5.9,7.9-9.7c1.8-3.8,2.7-7.7,2.7-11.5c0-2.5-0.4-4.8-1.2-7c-0.9-2.2-2.2-4.2-4-5.9
			c-1.8-1.7-4-2.9-6.8-4c-2.7-1-5.9-1.5-9.6-1.5c-8.5,0-17.3,3-26.1,9c-8.8,6-18.1,14.5-27.9,25.3c-9.8,10.9-20.2,24-31.3,39.3
			c-11.1,15.3-23.2,32.2-36.2,50.7l-8.9,12.6l-0.1,1.5c10.7,18.7,20.5,35.2,29.5,49.4C1930.5,560.9,1938.7,573.2,1945.9,583.7"/>
		<path class="st0" d="M1839.5,377.3c3.9,0,7.2,0.4,9.6,1.1c2.5,0.8,4.5,2,5.9,3.7c1.4,1.7,2.4,3.8,2.9,6.5c0.5,2.6,0.8,5.8,0.8,9.6
			c0,19.2-0.2,38.3-0.4,57.3c-0.3,18.9-0.7,38.1-1.3,57.6c-0.6,19.6-1.2,39.7-2,60.4c-0.8,20.8-1.6,42.6-2.6,65.6l2.2,0.2l28.4-3.6
			c0.4-13.7,0.8-27.4,1.2-41.4c0.5-13.9,0.9-27.6,1.3-41.2c0.4-13.5,0.8-26.7,1.2-39.5c0.4-12.8,0.8-24.9,1.1-36.4
			c0.3-11.4,0.6-22,1-31.8c0.3-9.8,0.6-18.3,0.8-25.7c0.2-7.3,0.4-13.4,0.5-18.1c0.2-4.7,0.2-7.7,0.2-9.1c0-5.1-0.1-9.7-0.5-13.7
			c-0.3-4-1.2-7.4-2.7-10.1c-1.5-2.7-3.8-4.8-6.8-6.2c-3-1.4-7.2-2.1-12.6-2.1c-5.4,0-12.2,0.7-20.2,2.2c-8.1,1.4-17.9,3.7-29.5,6.6
			l1.2,9.9C1827.5,377.9,1834.2,377.3,1839.5,377.3"/>
		<path class="st0" d="M2276,653.8c45.8,0,83.7-14,113.8-42c30.1-28,45.1-63.4,45.1-106.2c0-42.8-14.9-78.3-44.7-106.7
			c-29.8-28.3-67.1-42.5-111.9-42.5c-44.8,0-81.9,14.2-111.2,42.5c-29.3,28.4-44,64.2-44,107.5c0,42.2,14.5,77.3,43.7,105.3
			C2195.9,639.8,2232.4,653.8,2276,653.8 M2198.2,426.9c21.4-20.8,48.6-31.1,81.8-31.1c31.5,0,58.1,10.5,79.7,31.4
			c21.6,20.9,32.5,46.8,32.5,77.5c0,31.5-10.8,57.9-32.5,79.1c-21.6,21.2-48.6,31.7-81,31.7c-32.2,0-59-10.3-80.4-31.1
			c-21.5-20.8-32.2-46.8-32.2-78C2166.1,474.2,2176.8,447.7,2198.2,426.9"/>
	</g>
	<path class="st0" d="M583.6,523.1c0,0-65.1-99.2-224-68.2c0,0-13.6,124,101.4,164.3c0,0,72.7,24.8,116.6-26.4
		c0,0,13.8-19.1,45.3-24.8C622.8,568,616.9,564.9,583.6,523.1"/>
	<path class="st0" d="M705.3,505.8c-16.8,44.6-18.8,53.3-18.8,53.3c21.9,2.6,32.3,15.3,32.3,15.3c36.4,46.5,81.9,15,81.9,15
		c71.9-50.9,46.1-172.4,46.1-172.4C735.7,401.3,705.3,505.8,705.3,505.8"/>
	<path class="st0" d="M635,634.4c15.1,26.3,33.3,0,33.3,0c24.1,15.4,24.6-9.3,24.6-9.3C658.6,577,635,634.4,635,634.4"/>
	<path class="st0" d="M871.5,105.2c8.8-58.7,5.2-85.5,5.2-85.5c-96.1-12.1-155.9,2.9-193.2,27C637,23.3,575.8,8.5,498.5,20
		c0,0-98.6,10.8-189.4,94.1c-38.8-22.4-96.1-27.7-178.2,20c0,0,9.5,10.8,13.3,100.1c-56,24.7-95,80.7-95,145.8
		c0,88,71.4,159.4,159.4,159.4c3.5,0,6.9-0.2,10.3-0.4c18.1,55.6,55.6,112.8,131.5,142.7c0,0,100.4,44.2,199.8,37.2
		c0,0,9.1,37.2,59,69.7c0,0,18.2-41.9,40.9-74.4c0,0,29.1,46.5,73.6,60.4l26.3-79.1c0,0,9.1,41.9,54.5,46.5v-88.3
		c0,0,114.8-93,116.4-223.2c0,0,0.3-17.5-3.8-43.3c51.4-23.2,87.3-74.8,87.3-134.9C1004.4,175.8,946.2,112.7,871.5,105.2
		 M683.3,125.7c-12.3,13.2-19.8,26.8-23.6,35.2c-11.7-0.7-24.3-0.6-37.3,0.9c9.4-18.1,20-33.5,31.4-46.5
		C663.2,118.2,673,121.6,683.3,125.7 M839.1,47.4c2.3,17.1-0.4,40.3-3.6,58.5c-19.8,2.8-38.2,9.5-54.7,19.3
		c-4.4-5.4-9.6-11.4-15.5-17.6c7.3-11.7,13.5-18.7,13.5-18.7c-11.3-0.6-21.6,0.1-31.1,1.7c-9-8-19.1-16.1-30.5-23.9
		C779.3,36.6,839.1,47.4,839.1,47.4 M369.9,191c-8.9,3-21.9,8.1-36.9,16.1c-1.4-2.6-7-12.6-17.8-22.4c9.2-8.5,18.7-16.9,28.5-25
		C352.7,168.2,361.5,178.5,369.9,191 M173.5,152.4c0,0,57.3-39.5,119-22.1c-9.9,10.2-19.5,21.3-28.9,33.4
		c-14.9-0.5-32.4,2.8-52.8,12.2c0,0,12.8,9.5,27.5,24.4c-4.2,6.8-8.3,13.9-12.3,21.3c-5.7-0.6-11.5-1-17.4-1c-10.6,0-21,1.1-31,3
		C174,202.1,170.5,172.5,173.5,152.4 M872.7,440c0,0-2,119.2-86.3,190.6c0,0-16.7,40.3,3,79.1c0,0-22.7,0-40.9-24.8
		c0,0-33,9.3-33.9,57.3c0,0-37.2-10.8-59.9-37.2c0,0-45.4,4.6-53,43.4c0,0-42.4-48.1-42.4-65.1c0,0-107.5-3.1-195.3-46.5
		c0,0-68.8-32-102.5-106.4c62-21.8,106.5-80.9,106.5-150.4c0-43.7-17.6-83.3-46.1-112.2c17.4-15.3,38.7-28.9,64.9-39
		c0,0,153.2-40.6,218,64.8c0,0-27.3-139.3-222.5-106.4c0,0-3.1,0.7-8.4,2.4c-4.8-10.5-11.8-23.6-21.7-36.7
		c55.1-43.3,117-72.9,170.6-47.8c0,0,40.2-12.8,109.1,3.9c-11,27.9-9.6,51.5-9.5,52.5c-30.2,3.5-62.6,14.4-91.4,39.6
		c0,0,107.2-21.2,210.1,9.3C741,210.6,885.3,273.3,872.7,440"/>
	<rect x="49.2" y="15.3" class="st1" width="2385.8" height="775.2"/>
</g>
</svg>
