<?xml version="1.0" encoding="utf-8"?>
<!-- Generator: Adobe Illustrator 22.0.0, SVG Export Plug-In . SVG Version: 6.00 Build 0)  -->
<svg version="1.1" id="图层_1" xmlns="http://www.w3.org/2000/svg" width="150" height="50" xmlns:xlink="http://www.w3.org/1999/xlink" x="0px" y="0px"
	 viewBox="0 0 150 50" style="enable-background:new 0 0 150 50;" xml:space="preserve">
<style type="text/css">
	.st0{fill:#FFFFFF;}
</style>
<g>
	<g>
		<path class="st0" d="M35.7,19.4c0,0-1.5-7.8-12.5-6c0,0-8.5,1.9-10,11.6c0,0-1.8,12.3,8.2,16.2c0,0,5.7,2.5,11.3,2.1
			c0,0,0.5,2.1,3.3,3.9c0,0,1-2.4,2.3-4.2c0,0,1.6,2.6,4.1,3.4l1.5-4.5c0,0,0.5,2.4,3.1,2.6v-5c0,0,6.5-5.2,6.6-12.6
			c0,0,0.2-11.8-10.6-14.3c0,0-6.5-2.8-11.3,1.4c0,0,6-1.2,11.8,0.5c0,0,8.1,3.5,7.4,12.9c0,0-0.1,6.7-4.9,10.7c0,0-0.9,2.3,0.2,4.5
			c0,0-1.3,0-2.3-1.4c0,0-1.9,0.5-1.9,3.2c0,0-2.1-0.6-3.4-2.1c0,0-2.6,0.3-3,2.4c0,0-2.4-2.7-2.4-3.7c0,0-6.1-0.2-11-2.6
			c0,0-8.3-3.8-6.6-13.4c0,0,1-7,7.8-9.6C23.4,15.7,32,13.4,35.7,19.4z"/>
		<path class="st0" d="M36.7,34.8c0,0-0.3-0.2-2.2-2.5c0,0-3.7-5.6-12.6-3.8c0,0-0.8,7,5.7,9.2c0,0,4.1,1.4,6.6-1.5
			C34.2,36.2,34.9,35.1,36.7,34.8z"/>
		<path class="st0" d="M40.3,34.3c0,0,0.1-0.5,1.1-3c0,0,1.7-5.9,8-5c0,0,1.5,6.8-2.6,9.7c0,0-2.6,1.8-4.6-0.8
			C42.1,35.2,41.5,34.5,40.3,34.3z"/>
		<path class="st0" d="M45.7,14.9c0,0,1.9-1.8,2.7-4.5c0,0,0.8-3.1,0.5-4.9c0,0-8.1-1.5-12.2,6.4c0,0-0.7-9.9,14.3-8
			c0,0,0.3,2.1-0.6,6.8c0,0-0.4,2.7-4.6,4.6L45.7,14.9z"/>
		<path class="st0" d="M38.6,12.3c0,0,1.6-4.8,6.9-4.5c0,0-2.1,2.3-2.1,5.1C43.4,12.9,39.6,12.4,38.6,12.3z"/>
		<path class="st0" d="M16.9,22.1c0,0-4.5-0.9-4.9-5.1c0,0-0.8-3.6-0.5-5.6c0,0,7.3-5,11.7,3.3c0,0-3-10.8-14.1-4.3
			c0,0,0.6,0.7,0.8,6.5c0,0-0.4,3.8,4.3,5.3L16.9,22.1z"/>
		<path class="st0" d="M20.4,14.5c0,0-2-4.1-6.9-1.8c0,0,3.2,2.4,3.8,4.9C17.3,17.7,19.5,14.9,20.4,14.5z"/>
		<path class="st0" d="M37.4,38.5c0,0,1.3-3.2,3.3-0.5c0,0,0,1.4-1.4,0.5C39.3,38.5,38.2,40,37.4,38.5z"/>
		<path class="st0" d="M12.3,20.3c0,0,0.8-0.2,1.7-1.3c2.8-3.1,10.9-13.1,17.1-10.2c0,0,5.2-1.6,13.2,3.3c0.7,0.4,1.5-1,2.3-0.7
			c0,0-5.1-9.2-16.9-7.4C29.7,4,17,5.4,12.3,20.3z"/>
		
			<ellipse transform="matrix(0.9996 -2.937401e-02 2.937401e-02 0.9996 -0.706 0.4035)" class="st0" cx="13.4" cy="24.2" rx="9" ry="9"/>
		<path class="st0" d="M58.2,17c0-4.6-3.7-8.3-8.3-8.3c-3.2,0-5.9,1.8-7.3,4.4c0.1,0,0.2,0.1,0.2,0.1c7.5,1.7,9.7,7.9,10.4,11.6
			C56.1,23.5,58.2,20.5,58.2,17z"/>
	</g>
	<g>
		<path class="st0" d="M67.9,34.8c-0.3,0.9-0.6,1.7-0.8,2.3c-0.2,0.7-0.4,1.2-0.6,1.7c-0.2,0.5-0.3,0.9-0.5,1.3
			c-0.1,0.4-0.3,0.7-0.4,1c-0.1,0.3-0.3,0.6-0.5,0.8c-0.2,0.2-0.4,0.3-0.6,0.4c-0.2,0.1-0.4,0.1-0.7,0.1c-0.2,0-0.5,0-0.7,0
			c-0.1,0-0.3,0-0.6,0c-0.2,0-0.4,0-0.6,0l-0.2-0.1c1-2.3,2-4.4,3-6.5c0.9-2.1,1.8-4,2.7-5.9c-0.2-0.3-0.3-0.5-0.3-0.7
			c0-0.3,0.3-0.5,0.8-0.5c1.6-3.5,3-6.6,4.3-9.3c1.2-2.7,2.3-4.9,3.3-6.7c0.1-0.2,0.2-0.3,0.3-0.4c0.1-0.1,0.3-0.2,0.5-0.3
			c0.2-0.1,0.3-0.1,0.5-0.1c0.2,0,0.4,0,0.5,0c0.3,0,0.5,0,0.7,0.1c0.2,0,0.5,0.1,0.8,0.2c0.5,3,1.1,5.8,1.5,8.2
			c0.5,2.4,0.9,4.6,1.3,6.5c0.4,1.9,0.8,3.5,1.1,4.9c0.3,1.4,0.7,2.6,1,3.6c0.3,1,0.6,1.8,1,2.5c0.3,0.7,0.7,1.2,1,1.5
			c0.3,0.4,0.7,0.6,1.1,0.8c0.4,0.1,0.8,0.2,1.3,0.2c0.3,0,0.6,0,0.9-0.1c0.3-0.1,3.5-1.1,3.9-1.2l0.4,1.1c-1,0.5-4.8,1.8-5.7,2.1
			c-0.9,0.3-1.7,0.4-2.4,0.4c-0.4,0-0.8-0.1-1.1-0.2c-0.4-0.1-0.7-0.4-1-0.8c-0.3-0.4-0.6-0.8-1-1.5c-0.3-0.6-0.6-1.4-0.9-2.3
			c-0.3-0.9-0.6-2-1-3.3c-0.3-1.3-0.7-2.8-1-4.5c-1.6,0-3.2,0.1-4.8,0.1c-1.6,0.1-3.2,0.1-4.9,0.2c-0.3,0.9-0.6,1.7-0.9,2.5
			C68.4,33.6,68.1,34.2,67.9,34.8z M78.9,28.4c-0.2-0.9-0.4-1.8-0.6-2.9c-0.2-1.1-0.4-2.2-0.6-3.3c-0.2-1.2-0.4-2.4-0.7-3.7
			c-0.2-1.3-0.4-2.6-0.7-3.9h-0.1c-1.3,2.6-2.4,5.1-3.4,7.4c-1,2.3-1.9,4.5-2.6,6.5c1.5,0,3-0.1,4.4-0.1
			C76,28.4,77.5,28.4,78.9,28.4z"/>
		<path class="st0" d="M93.1,27.1c0-0.2,0-0.4,0-0.6c0-0.2-0.1-0.3-0.2-0.4c-0.1-0.1-0.2-0.2-0.4-0.2c-0.2,0-0.4-0.1-0.6-0.1
			c-0.3,0-0.7,0-1.3,0.1l-0.1-0.6c0.7-0.2,1.3-0.3,1.8-0.4c0.5-0.1,0.9-0.1,1.3-0.1c0.3,0,0.6,0,0.8,0.1c0.2,0.1,0.3,0.2,0.4,0.4
			c0.1,0.2,0.1,0.4,0.2,0.6c0,0.2,0,0.5,0,0.9c0,0.1,0,0.3,0,0.6c0,0.3,0,0.7,0,1.1c0,0.5,0,1-0.1,1.6c0,0.6,0,1.3-0.1,2
			c0,0.7,0,1.5-0.1,2.3c0,0.8-0.1,1.6-0.1,2.5c0,0.8-0.1,1.7-0.1,2.6c0,0.9-0.1,1.7-0.1,2.6l-1.8,0.2l-0.1,0
			c0.1-1.4,0.1-2.8,0.2-4.1c0-1.3,0.1-2.5,0.1-3.8c0-1.2,0.1-2.4,0.1-3.6C93.1,29.5,93.1,28.3,93.1,27.1z M96.8,32.5
			c0.6,1.1,1.2,2,1.7,2.8c0.5,0.8,1,1.5,1.4,2.1c0.4,0.6,0.8,1.1,1.1,1.5c0.3,0.4,0.7,0.8,0.9,1c0.2,0.2,0.4,0.4,0.6,0.5
			c0.2,0.1,0.4,0.3,0.5,0.4c0.2,0.1,0.3,0.2,0.5,0.2c0.2,0,0.3,0.1,0.5,0.1c0.2,0,0.4,0,0.6-0.1c0.2,0,0.5-0.1,0.7-0.2l0.2,0.6
			c-0.4,0.2-0.7,0.3-1,0.4c-0.3,0.1-0.6,0.2-0.8,0.3c-0.2,0.1-0.5,0.1-0.7,0.2c-0.2,0-0.4,0.1-0.6,0.1c-0.2,0-0.3,0-0.5-0.1
			c-0.2,0-0.3-0.1-0.4-0.2c-0.2-0.1-0.3-0.2-0.4-0.3c-0.1-0.1-0.3-0.3-0.5-0.4c-0.3-0.3-0.6-0.6-1-1c-0.4-0.4-0.8-1-1.2-1.6
			c-0.5-0.7-1-1.4-1.5-2.3c-0.6-0.9-1.2-1.9-1.8-3.1l0-0.1l0.6-0.8c0.8-1.2,1.6-2.2,2.3-3.2c0.7-1,1.3-1.8,2-2.5
			c0.6-0.7,1.2-1.2,1.7-1.6c0.5-0.4,1.1-0.6,1.6-0.6c0.2,0,0.4,0,0.6,0.1c0.2,0.1,0.3,0.1,0.4,0.2c0.1,0.1,0.2,0.2,0.2,0.4
			c0.1,0.1,0.1,0.3,0.1,0.4c0,0.2-0.1,0.5-0.2,0.7c-0.1,0.2-0.3,0.4-0.5,0.6H104c-0.2-0.2-0.4-0.4-0.6-0.4c-0.2-0.1-0.4-0.1-0.6-0.1
			c-0.4,0-0.8,0.2-1.3,0.5c-0.5,0.3-0.9,0.7-1.4,1.3c-0.5,0.5-1,1.2-1.6,1.9C97.9,30.9,97.3,31.7,96.8,32.5z"/>
		<path class="st0" d="M109.7,27.1c0-0.2,0-0.4-0.1-0.6c0-0.2-0.1-0.3-0.2-0.4c-0.1-0.1-0.2-0.2-0.4-0.2c-0.2,0-0.4-0.1-0.6-0.1
			c-0.3,0-0.7,0-1.3,0.1l-0.1-0.6c0.7-0.2,1.3-0.3,1.8-0.4c0.5-0.1,0.9-0.1,1.3-0.1c0.3,0,0.6,0,0.8,0.1c0.2,0.1,0.3,0.2,0.4,0.4
			c0.1,0.2,0.1,0.4,0.2,0.6c0,0.2,0,0.5,0,0.9c0,0.1,0,0.3,0,0.6c0,0.3,0,0.7,0,1.1c0,0.5,0,1,0,1.6c0,0.6,0,1.3-0.1,2
			c0,0.7,0,1.5-0.1,2.3c0,0.8,0,1.6-0.1,2.5c0,0.8-0.1,1.7-0.1,2.6c0,0.9-0.1,1.7-0.1,2.6l-1.8,0.2l-0.1,0c0.1-1.4,0.1-2.8,0.2-4.1
			c0-1.3,0.1-2.5,0.1-3.8c0-1.2,0.1-2.4,0.1-3.6C109.7,29.5,109.7,28.3,109.7,27.1z M113.3,32.5c0.6,1.1,1.2,2,1.7,2.8
			c0.5,0.8,1,1.5,1.4,2.1c0.4,0.6,0.8,1.1,1.1,1.5c0.3,0.4,0.7,0.8,0.9,1c0.2,0.2,0.4,0.4,0.6,0.5c0.2,0.1,0.4,0.3,0.5,0.4
			c0.2,0.1,0.3,0.2,0.5,0.2c0.2,0,0.3,0.1,0.5,0.1c0.2,0,0.4,0,0.6-0.1c0.2,0,5.3-2.5,5.5-2.6l0.2,0.6c-0.4,0.1-5.5,2.7-5.8,2.8
			c-0.3,0.1-0.6,0.2-0.8,0.3c-0.2,0.1-0.5,0.1-0.7,0.2c-0.2,0-0.4,0.1-0.6,0.1c-0.2,0-0.3,0-0.5-0.1c-0.2,0-0.3-0.1-0.4-0.2
			c-0.1-0.1-0.3-0.2-0.4-0.3c-0.1-0.1-0.3-0.3-0.5-0.4c-0.3-0.3-0.6-0.6-1-1c-0.4-0.4-0.8-1-1.2-1.6c-0.5-0.7-1-1.4-1.5-2.3
			c-0.6-0.9-1.2-1.9-1.8-3.1l0-0.1l0.6-0.8c0.8-1.2,1.6-2.2,2.3-3.2c0.7-1,1.3-1.8,2-2.5c0.6-0.7,1.2-1.2,1.7-1.6
			c0.5-0.4,1.1-0.6,1.6-0.6c0.2,0,0.4,0,0.6,0.1c0.2,0.1,0.3,0.1,0.4,0.2c0.1,0.1,0.2,0.2,0.2,0.4c0.1,0.1,0.1,0.3,0.1,0.4
			c0,0.2-0.1,0.5-0.2,0.7c-0.1,0.2-0.3,0.4-0.5,0.6h-0.1c-0.2-0.2-0.4-0.4-0.6-0.4c-0.2-0.1-0.4-0.1-0.6-0.1c-0.4,0-0.8,0.2-1.3,0.5
			c-0.5,0.3-0.9,0.7-1.4,1.3c-0.5,0.5-1,1.2-1.6,1.9C114.4,30.9,113.9,31.7,113.3,32.5z"/>
		<path class="st0" d="M135.9,24.5c2.8,0,5.1,0.9,7,2.7c1.9,1.8,2.8,4,2.8,6.7c0,2.7-0.9,4.9-2.8,6.6c-1.9,1.7-4.2,2.6-7.1,2.6
			c-2.7,0-5-0.9-6.8-2.6c-1.8-1.8-2.7-3.9-2.7-6.6c0-2.7,0.9-4.9,2.7-6.7C130.7,25.4,133.1,24.5,135.9,24.5z M136,27
			c-2.1,0-3.8,0.6-5.1,1.9c-1.3,1.3-2,2.9-2,5c0,2,0.7,3.6,2,4.9c1.3,1.3,3,1.9,5,1.9c2,0,3.7-0.7,5.1-2c1.4-1.3,2-3,2-4.9
			c0-1.9-0.7-3.5-2-4.8C139.6,27.6,137.9,27,136,27z"/>
	</g>
</g>
</svg>
